<?xml version="1.0" encoding="UTF-8" standalone="no"?>
<svg
   width="208"
   height="24"
   version="1.1"
   id="svg96"
   sodipodi:docname="logo.svg"
   inkscape:version="1.2.1 (9c6d41e410, 2022-07-14)"
   xmlns:inkscape="http://www.inkscape.org/namespaces/inkscape"
   xmlns:sodipodi="http://sodipodi.sourceforge.net/DTD/sodipodi-0.dtd"
   xmlns="http://www.w3.org/2000/svg"
   xmlns:svg="http://www.w3.org/2000/svg">
  <sodipodi:namedview
     id="namedview98"
     pagecolor="#505050"
     bordercolor="#ffffff"
     borderopacity="1"
     inkscape:showpageshadow="0"
     inkscape:pageopacity="0"
     inkscape:pagecheckerboard="1"
     inkscape:deskcolor="#505050"
     showgrid="false"
     inkscape:zoom="8.0000004"
     inkscape:cx="79.249996"
     inkscape:cy="2.9999999"
     inkscape:window-width="1344"
     inkscape:window-height="729"
     inkscape:window-x="64"
     inkscape:window-y="75"
     inkscape:window-maximized="0"
     inkscape:current-layer="svg96" />
  <defs
     id="defs82">
    <rect
       x="20.301234"
       y="1.3957098"
       width="87.695283"
       height="22.602785"
       id="rect366" />
    <radialGradient
       id="a"
       cx="15.116"
       cy="63.965"
       r="12.289"
       gradientTransform="matrix(0.83558644,0,0,0.41277697,-2.361903,-7.5788242)"
       gradientUnits="userSpaceOnUse">
      <stop
         offset="0"
         id="stop51" />
      <stop
         offset="1"
         stop-opacity="0"
         id="stop53" />
    </radialGradient>
    <radialGradient
       id="c"
       cx="11.827"
       cy="10.476"
       r="32.665001"
       gradientTransform="matrix(0.50114413,0,0,0.46276362,2.6632547,-1.9718833)"
       gradientUnits="userSpaceOnUse">
      <stop
         offset="0"
         stop-color="#fff"
         id="stop56" />
      <stop
         offset="1"
         stop-color="#fff"
         stop-opacity="0"
         id="stop58" />
    </radialGradient>
    <radialGradient
       id="e"
       cx="15.601"
       cy="12.142"
       r="43.527"
       gradientTransform="matrix(0.50825923,0,0,0.545847,-2.361903,-1.9718833)"
       gradientUnits="userSpaceOnUse">
      <stop
         offset="0"
         stop-color="#fff"
         id="stop61" />
      <stop
         offset="1"
         stop-color="#fff"
         stop-opacity=".16495"
         id="stop63" />
    </radialGradient>
    <radialGradient
       id="b"
       cx="18.247999"
       cy="15.716"
       r="29.993"
       gradientTransform="matrix(0.50825923,0,0,0.545847,-2.361903,-1.9718833)"
       gradientUnits="userSpaceOnUse">
      <stop
         offset="0"
         stop-color="#d3e9ff"
         id="stop66" />
      <stop
         offset=".15517"
         stop-color="#d3e9ff"
         id="stop68" />
      <stop
         offset=".75"
         stop-color="#4074ae"
         id="stop70" />
      <stop
         offset="1"
         stop-color="#36486c"
         id="stop72" />
    </radialGradient>
    <radialGradient
       id="d"
       cx="18.634001"
       cy="17.486"
       r="40.693001"
       fx="18.934"
       fy="17.809999"
       gradientTransform="matrix(0.51766715,0,0,0.5171791,-2.4030481,-1.9550265)"
       gradientUnits="userSpaceOnUse">
      <stop
         offset="0"
         stop-color="#fff"
         id="stop75" />
      <stop
         offset=".37931"
         stop-color="#fefefe"
         id="stop77" />
      <stop
         offset="1"
         stop-color="#1d1d1d"
         id="stop79" />
    </radialGradient>
  </defs>
  <path
     fill="url(#a)"
     d="m 20.536931,18.824704 a 10.268468,5.0725809 0 1 1 -20.53693047630576,0 10.268468,5.0725809 0 1 1 20.53693047630576,0 z"
     id="path84"
     style="fill:url(#a);stroke-width:0.587286" />
  <path
     fill="url(#b)"
     stroke="#39396c"
     d="m 19.981394,10.847335 c 0,5.846013 -4.412754,10.585069 -9.85525,10.585069 -5.4435045,0 -9.85574693,-4.739056 -9.85574693,-10.585069 C 0.27024476,5.0018589 4.6826395,0.26336022 10.126144,0.26336022 c 5.442496,1.0925e-4 9.85525,4.73849868 9.85525,10.58397478 z"
     id="path86"
     style="fill:url(#b);stroke-width:0.526718" />
  <path
     fill="url(#c)"
     d="m 15.710844,6.3637469 a 5.4936786,5.0727752 0 1 1 -10.9873533,0 5.4936786,5.0727752 0 1 1 10.9873533,0 z"
     opacity="0.42"
     id="path88"
     style="fill:url(#c);stroke-width:0.481578" />
  <path
     fill-opacity="0.71"
     d="M 7.0506435,6.0198629 7.2686871,5.6666994 6.9418745,5.4025108 7.0506435,6.0198629 M 6.869701,13.299284 6.5789737,12.681378 6.0346237,12.549282 5.7438957,11.711409 5.0180944,11.799287 4.40157,11.314577 3.7479412,11.931928 v 0.09717 C 3.550227,11.967966 3.3072767,11.959772 3.1309086,11.84351 L 2.9855456,11.402469 V 10.917202 L 2.550268,10.96085 C 2.586605,10.651899 2.622696,10.343499 2.6592902,10.034549 H 2.4049543 l -0.2537757,0.353194 -0.254285,0.132095 -0.363053,-0.21998 -0.036342,-0.4857957 0.07263,-0.5294761 0.5446562,-0.4404979 h 0.435431 L 2.6226433,8.5788098 3.1669945,8.7109054 3.5664905,9.2409215 3.639171,8.357742 4.3288858,7.7403878 4.5825092,7.078822 5.0907739,6.8582997 5.3809943,6.4172513 6.0341137,6.2840648 6.3614361,5.7551395 H 5.3809942 L 5.9980275,5.4461896 H 6.4336094 L 7.0506435,5.22511 7.1233248,4.9614655 6.9052796,4.740397 6.6511485,4.6519707 6.7238299,4.3877809 6.5423794,3.9904045 6.1067955,4.1667133 6.1794781,3.8140956 5.6717242,3.5051457 5.2722287,4.2545933 5.3083156,4.5193291 4.9093289,4.6961841 4.6551965,5.2698698 4.5464243,4.740397 3.8567095,4.4314485 3.7474324,4.0346179 4.6551928,3.4606047 5.0546884,3.063665 5.0907748,2.5785164 4.8732387,2.4460385 4.582511,2.4017702 4.4015695,2.8871922 c 0,0 -0.3039429,0.063866 -0.3817074,0.084606 -0.9967056,0.9864002 -3.0105513,3.1157493 -3.47840815,7.1347598 0.0185513,0.09334 0.33916483,0.633735 0.33916483,0.633735 l 0.76214172,0.485261 0.7621422,0.220516 0.3270186,0.441597 0.507755,0.396824 0.2902193,-0.04367 0.218045,0.105351 v 0.07095 l -0.2902186,0.837873 -0.2180457,0.353154 0.072681,0.176857 -0.1814501,0.661018 0.653119,1.280013 0.65312,0.617904 0.290727,0.440498 -0.03659,0.926846 0.2180455,0.528924 -0.2180455,1.01527 c 0,0 -0.016775,-0.0065 0.010672,0.09499 0.028458,0.101527 1.1629102,0.778378 1.2350828,0.720518 0.072169,-0.05838 0.1336736,-0.109723 0.1336736,-0.109723 l -0.072683,-0.219936 0.2902185,-0.308954 0.1092765,-0.30895 0.471669,-0.177398 0.3629024,-0.970522 -0.10877,-0.264182 0.2536237,-0.39684 0.5448607,-0.132645 0.2902187,-0.706323 -0.07268,-0.881549 0.4355833,-0.662105 0.07268,-0.661564 C 8.0519239,13.952584 7.4608122,13.626169 6.8691923,13.299207 M 5.1273703,2.9314058 4.945413,3.4165544 H 5.3088211 L 5.4902705,2.9753466 C 5.6468172,2.8565159 5.8028537,2.7368656 5.9619402,2.6224018 L 6.3253507,2.7549331 C 6.5667754,2.9314058 6.8087092,3.1078785 7.0511512,3.2840776 L 7.4140518,2.9314058 7.0145559,2.7549331 6.833106,2.3577207 6.1433904,2.2695116 6.1073013,2.0487717 5.780487,2.1372533 5.6351229,2.4459841 5.4536766,2.0488257 5.3815037,2.2252977 5.4175901,2.666506 5.1273699,2.9314058 M 11.115741,1.2991593 10.171895,0.90200123 9.0837001,1.03426 7.7403577,1.4311458 7.4862265,1.6960994 8.3213047,2.3135073 V 2.6664516 L 7.9944905,3.0193962 8.4300724,3.9466265 8.7197829,3.7697728 9.0837001,3.1520921 C 9.6443127,2.9659578 10.146994,2.7549331 10.680151,2.4901977 l 0.43559,-1.1910384 m -0.398983,1.8087192 -0.03657,0.2644623 0.254629,0.1763638 0.434566,-0.3086225 -0.217028,-0.2647355 -0.29072,0.1767455 -0.144856,-0.044213 m 1.379431,1.8976929 -0.145374,-0.3979223 -0.254632,0.088971 0.07321,0.4847118 0.326819,-0.1757618 m 7.608233,4.2570592 -0.271924,0.3307834 C 19.265753,9.3827219 19.078712,9.2053157 18.888622,9.0197305 l -0.41779,0.066048 -0.381198,-0.4628782 v 0.5725916 l 0.326809,0.2658344 0.217535,0.2641829 0.290228,-0.3526114 c 0.07316,0.1468304 0.145358,0.2942114 0.21804,0.4410402 v 0.441035 L 18.81544,10.65181 18.216189,11.093403 17.762816,11.5792 17.4726,11.225488 17.617457,10.828666 17.327746,10.475501 16.837262,9.3505135 16.419979,8.843966 l -0.109276,0.1315491 0.164173,0.6402795 0.308011,0.374995 c 0.175859,0.5453024 0.350192,1.0671304 0.581455,1.5884104 0.358322,0 0.695807,-0.04095 1.052101,-0.08897 v 0.308951 l -0.435579,1.147371 -0.399495,0.484707 -0.326303,0.751094 v 1.234704 l 0.109276,0.485803 -0.181453,0.219973 -0.400002,0.265282 -0.417285,0.374455 0.345113,0.419211 -0.472187,0.442133 0.09098,0.28548 -0.708025,0.861348 h -0.471661 l -0.399506,0.264727 H 14.4962 V 18.682316 L 14.387939,17.97544 c -0.140784,-0.44268 -0.286665,-0.882634 -0.435586,-1.322589 0,-0.324775 0.01783,-0.646278 0.03609,-0.971055 l 0.181964,-0.440501 -0.254646,-0.530018 0.0183,-0.728163 -0.345112,-0.418669 0.172805,-0.606429 -0.281066,-0.342246 h -0.490473 l -0.163155,-0.198696 -0.489963,0.331337 -0.19975,-0.243451 -0.453876,0.419209 c -0.308016,-0.375001 -0.616535,-0.749996 -0.925556,-1.12499 l -0.36239,-0.926847 0.326301,-0.52893 -0.180941,-0.220519 0.398479,-1.0152765 c 0.327826,-0.4377707 0.669883,-0.8575273 1.016529,-1.278922 l 0.617021,-0.1768546 0.689716,-0.087885 0.471672,0.1326399 0.671412,0.7270689 0.236348,-0.2860236 0.325793,-0.044212 0.617543,0.2205222 H 16.05758 L 16.383889,8.0049994 16.529265,7.7844755 16.201943,7.5639531 15.657583,7.5202724 C 15.50613,7.2948365 15.365851,7.0579399 15.186428,6.8581601 l -0.181955,0.087884 -0.07268,0.574231 -0.32682,-0.3973786 -0.07167,-0.4415883 -0.362886,-0.3078589 h -0.145883 l 0.363412,0.4404983 -0.145356,0.397376 -0.290229,0.087882 0.18145,-0.3968286 -0.32732,-0.1763065 -0.289705,-0.3526169 -0.544861,0.1315491 -0.07216,0.1763086 -0.326818,0.2210682 -0.181445,0.4852579 -0.453373,0.2423569 -0.200256,-0.2423569 H 11.520842 V 6.5934275 l 0.471671,-0.2652811 h 0.362902 L 12.282191,6.019753 11.992484,5.7108037 12.481942,5.6005423 12.754374,5.2697582 12.971907,4.8723827 h 0.399496 l -0.109254,-0.3084019 0.254647,-0.176309 v 0.353164 l 0.544339,0.1315488 0.543847,-0.4847128 0.03658,-0.221068 0.47167,-0.3526169 c -0.170771,0.022926 -0.341555,0.039301 -0.508255,0.088427 V 3.5050366 L 14.78643,3.0636099 H 14.604983 L 14.206508,3.4605498 14.097221,3.6813461 14.206508,3.9902946 14.02455,4.5192214 13.734331,4.3429114 13.48071,4.0345082 13.081208,4.3429114 12.935846,3.6371314 13.625055,3.1520921 V 2.8871375 l 0.436084,-0.3086766 0.689206,-0.1767448 0.472184,0.1767448 0.870661,0.1764722 -0.217028,0.2644631 h -0.472189 l 0.472185,0.5293084 0.362381,-0.4408261 0.1103,-0.1939945 c 0,0 1.391629,1.3395098 2.18706,2.8045618 0.795431,1.4655996 1.168497,3.193205 1.168497,3.5441833 z M 6.4336094,1.8281946 6.6150581,1.6519961 6.9784687,1.5637332 C 7.2270096,1.4338213 7.4765677,1.3463764 7.7403567,1.2547284 L 7.5955012,0.98999306 7.1268819,1.062262 6.905787,1.2992687 6.5408521,1.3560913 6.2160734,1.5197371 6.0585095,1.6016691 5.9619395,1.740205 6.4336098,1.828195 M 6.0707089,3.2841879 6.4336104,3.5488141 H 6.724338 V 3.2401917 L 6.3614361,3.0637197 6.0707089,3.2841873 M 12.241042,4.9167062 12.16837,5.446178 12.567357,5.357751 12.85758,5.0493484 12.603457,4.7846116 C 12.518558,4.540618 12.420455,4.3124542 12.313728,4.0788319 h -0.217541 v 0.2641898 l 0.14486,0.1763078 v 0.3973772"
     id="path90"
     style="stroke-width:0.526718" />
  <path
     fill="url(#d)"
     d="M 6.9479735,5.909602 7.1660183,5.5564389 6.8392047,5.2922488 6.9479735,5.909602 M 5.0247011,2.8212537 4.8427435,3.3064023 H 5.206152 L 5.3876019,2.8651948 C 5.5441472,2.7463092 5.7001841,2.6267137 5.8592725,2.5122499 l 0.3634083,0.1325314 c 0.2414251,0.1764724 0.4833591,0.3529449 0.7252927,0.529144 L 7.3113823,2.8212537 6.9118871,2.6447813 6.7304376,2.2475691 6.0407207,2.159306 6.0046336,1.9386201 5.6778195,2.0271014 5.532455,2.3358327 5.3510065,1.9386743 5.2788325,2.1151466 5.3149195,2.5563545 5.0246998,2.8212544 M 6.7665229,13.189069 6.4763043,12.571176 5.9319521,12.439076 5.6412239,11.601198 4.915424,11.689113 4.2988991,11.2044 3.6452711,11.821754 v 0.09718 C 3.4475575,11.85778 3.2046071,11.849574 3.0282388,11.733319 L 2.8828759,11.292268 v -0.485266 l -0.4352774,0.04367 c 0.036339,-0.30895 0.072374,-0.617346 0.1089713,-0.9263009 H 2.3022849 L 2.0485092,10.277526 1.7942245,10.409068 1.4311712,10.189639 1.3948297,9.703831 1.4674592,9.1743648 2.0121154,8.7333199 H 2.4475466 L 2.5199216,8.4685888 3.0643233,8.6006804 3.46382,9.1307005 3.5365007,8.24752 4.2262177,7.6301671 4.4798412,6.9686005 4.9881051,6.7480787 5.2783246,6.3070343 5.931443,6.1738469 6.2587673,5.6449219 H 5.2783253 L 5.8953579,5.3359729 H 6.3309395 L 6.9479735,5.1149038 7.0206539,4.85126 6.8026067,4.6301921 6.5484758,4.5417651 6.6211561,4.2770303 6.4397058,3.8801985 6.0041258,4.056508 6.0768061,3.7038896 5.5685443,3.3946677 5.1695563,4.1443887 5.2056425,4.4091245 4.806656,4.5859764 4.5525234,5.159661 4.4437551,4.6301902 3.7540406,4.3212406 3.644763,3.9244091 4.5525234,3.3503969 4.9515108,2.9534566 4.988105,2.4683077 4.7705689,2.3357767 4.4798411,2.2915637 4.2988991,2.7769848 c 0,0 -0.3039424,0.063866 -0.3817071,0.084551 -0.9967057,0.9864547 -3.01055079,3.1158037 -3.478408,7.1347674 0.0185513,0.09334 0.33911403,0.6337358 0.33911403,0.6337358 l 0.76214167,0.485247 0.7621424,0.220529 0.3269666,0.441591 0.5078577,0.396828 0.2902194,-0.04368 0.2180453,0.105346 v 0.07095 l -0.2902188,0.837872 -0.2180459,0.353169 0.072681,0.176851 -0.1814507,0.661024 0.6531195,1.280012 0.6531195,0.617898 0.2907272,0.440496 -0.03659,0.926849 0.2180461,0.528932 -0.2180461,1.015274 c 0,0 -0.016773,-0.0065 0.010676,0.09498 0.028459,0.101528 1.1629094,0.778379 1.235083,0.720518 0.072168,-0.05842 0.133674,-0.109721 0.133674,-0.109721 l -0.072686,-0.219976 0.2902192,-0.308947 0.1092774,-0.308952 0.4716695,-0.177396 0.3628998,-0.970516 -0.1087685,-0.26419 0.2536235,-0.396825 0.5448584,-0.132638 0.2902187,-0.706327 -0.07268,-0.881544 0.4355822,-0.662116 0.072682,-0.661568 C 7.9492541,13.842344 7.3581433,13.515924 6.7665249,13.188966 M 11.013067,1.1890619 10.069222,0.79190389 8.9810304,0.9241079 7.637688,1.3210481 7.3835568,1.5860013 8.2186348,2.2034091 V 2.5563539 L 7.8918207,2.9092988 8.3274018,3.8365295 8.6171145,3.6596755 8.9810304,3.0419948 C 9.541651,2.855806 10.04432,2.6448368 10.577492,2.3800999 l 0.435575,-1.1910922 m -0.398983,1.8087735 -0.03657,0.2644631 0.254637,0.1764725 0.434567,-0.3087315 -0.217031,-0.2647367 -0.290735,0.1767462 -0.144851,-0.044213 m 8.987637,6.1549694 -0.271925,0.3307871 C 19.163089,9.2728382 18.976054,9.0954388 18.785954,8.9098492 l -0.417792,0.066041 -0.381198,-0.4628793 v 0.5725953 l 0.326812,0.2658305 0.21754,0.2641826 0.290217,-0.3526114 c 0.07318,0.1468306 0.145362,0.2942137 0.218045,0.441039 v 0.4410541 l -0.326813,0.396829 -0.599238,0.44159 -0.453378,0.485803 -0.290219,-0.353708 0.144852,-0.396834 -0.289707,-0.353174 -0.49047,-1.1249831 -0.417287,-0.5065459 -0.109275,0.131549 0.164163,0.6402782 0.308005,0.3749972 c 0.175866,0.5453056 0.3502,1.0671256 0.581458,1.5884206 0.35833,0 0.695817,-0.04095 1.052107,-0.08897 v 0.30895 l -0.435579,1.147371 -0.399501,0.48471 -0.326302,0.751087 v 1.234704 l 0.109275,0.485813 -0.181446,0.219968 -0.400012,0.26528 -0.417282,0.374456 0.345107,0.419209 -0.472169,0.442137 0.09098,0.285481 -0.708001,0.861348 h -0.471677 l -0.399484,0.264742 H 14.393538 V 18.57244 l -0.108259,-0.706873 c -0.140789,-0.442682 -0.28666,-0.882631 -0.435579,-1.322589 0,-0.324783 0.01776,-0.646282 0.03609,-0.971061 l 0.18195,-0.440494 -0.254639,-0.530027 0.01831,-0.728161 -0.345114,-0.418659 0.172809,-0.606437 -0.281066,-0.342246 h -0.490466 l -0.163158,-0.198692 -0.489964,0.331327 -0.199751,-0.24345 -0.453877,0.419212 c -0.308017,-0.374993 -0.616536,-0.749989 -0.92556,-1.124986 l -0.362381,-0.926843 0.326297,-0.528925 -0.181441,-0.220525 0.398994,-1.0152763 c 0.327815,-0.4377714 0.669888,-0.8575292 1.016521,-1.2789215 l 0.61703,-0.1768556 0.689716,-0.087884 0.471668,0.1326409 0.671424,0.7270665 0.236346,-0.2860223 0.32579,-0.044214 0.617543,0.2205226 h 0.471655 l 0.326807,-0.3089504 0.145363,-0.2205213 -0.32733,-0.220523 -0.544339,-0.043672 C 15.40346,7.184963 15.263175,6.9480662 15.083751,6.7482862 L 14.9018,6.8361672 14.82911,7.4103992 14.50229,7.0130243 14.43062,6.571432 14.067721,6.2635758 H 13.921856 L 14.28526,6.7040738 14.139898,7.1014513 13.849681,7.1893333 14.031129,6.7925046 13.703804,6.6161942 13.414095,6.2635771 12.869235,6.3951267 12.797057,6.5714341 12.470248,6.7925038 12.2888,7.2777617 11.835427,7.5201173 11.635174,7.2777615 h -0.21702 V 6.4835582 l 0.47168,-0.2652829 h 0.362905 L 12.179553,5.9098734 11.889847,5.600924 12.379305,5.4906624 12.651735,5.1598806 12.869268,4.7625027 h 0.399493 L 13.159476,4.4540993 13.414109,4.2777906 v 0.352617 l 0.544352,0.1320942 0.54384,-0.4847112 0.03657,-0.2210687 0.471675,-0.3526169 C 14.839762,3.727032 14.668998,3.743413 14.502279,3.792532 V 3.3949395 L 14.683731,2.9537316 H 14.502284 L 14.103819,3.3506715 13.994545,3.571466 14.103819,3.8804152 13.921875,4.4093415 13.631648,4.2330335 13.378027,3.9246289 12.978528,4.2330335 12.833165,3.5272526 13.52237,3.0422134 V 2.7772593 l 0.436092,-0.3086765 0.689213,-0.1767465 0.472168,0.1767465 0.870652,0.1764718 -0.217025,0.2644633 h -0.472179 l 0.472176,0.5294169 0.362395,-0.4409354 0.110297,-0.1940491 c 0,0 1.391626,1.3395632 2.187057,2.804618 0.795436,1.4655981 1.168505,3.193205 1.168508,3.544183 z M 6.3309395,1.7183155 6.5123924,1.5421161 6.8758,1.4538525 C 7.1243417,1.3239954 7.3738987,1.2365502 7.637688,1.1449036 L 7.4928325,0.88016734 7.0242137,0.9524358 6.8031185,1.1893885 6.4376763,1.2462647 6.1134033,1.4099093 5.9558408,1.4918411 5.8592721,1.6303236 6.3309392,1.7183142 m -0.3629,1.4560466 0.3628995,0.2647364 H 6.6216685 V 3.1303674 L 6.2587702,2.9538946 5.9680423,3.1743621 m 6.1703297,1.632519 -0.0727,0.5294722 0.398982,-0.088426 0.290226,-0.3084041 -0.254135,-0.264735 C 12.415878,4.4307939 12.317786,4.2026303 12.211047,3.9690066 h -0.217538 v 0.2641911 l 0.144856,0.1763082 v 0.3973755 m -0.144856,0.088973 -0.145359,-0.3979224 -0.254647,0.088972 0.0732,0.4847124 0.326809,-0.1757629"
     id="path92"
     style="fill:url(#d);stroke-width:0.526718" />
  <path
     fill="none"
     stroke="url(#e)"
     d="m 19.480751,10.847873 c 0,5.548546 -4.188607,10.046868 -9.355113,10.046868 -5.1665023,0 -9.35510883,-4.498322 -9.35510883,-10.046868 C 0.77073245,5.2987985 4.9591357,0.80101959 10.125638,0.80101959 15.292144,0.80096498 19.480751,5.2987985 19.480751,10.847873 Z"
     id="path94"
     style="stroke:url(#e);stroke-width:0.526718" />
  <text
     xml:space="preserve"
     id="text364"
     style="white-space:pre;shape-inside:url(#rect366);display:inline;fill:#000000" />
  <text
     xml:space="preserve"
     style="white-space:pre;inline-size:100.237;display:inline;fill:#000000"
     x="21.38998"
     y="17.67767"
     id="text422" />
  <text
     xml:space="preserve"
     style="font-size:21.492px;line-height:42.9841px;fill:#000000;stroke-width:1.79101"
     x="26.965643"
     y="18.11075"
     id="text560"
     transform="scale(0.87246361,1.1461796)"><tspan
       sodipodi:role="line"
       id="tspan558"
       x="26.965643"
       y="18.11075"
       style="font-style:normal;font-variant:normal;font-weight:normal;font-stretch:normal;font-family:'Segoe UI';-inkscape-font-specification:'Segoe UI';stroke-width:1.79101"
       dx="0 0.30000001 0.30000001 0.30000001 0.30000001 0.30000001 0.30000001 0.30000001 0.30000001 0.30000001 0.30000001 0.30000001 0.30000001">Miners Online</tspan></text>
</svg>
